<?xml version="1.0" encoding="UTF-8" standalone="no"?>
<!DOCTYPE svg PUBLIC "-//W3C//DTD SVG 1.1//EN"
 "http://www.w3.org/Graphics/SVG/1.1/DTD/svg11.dtd">
<!-- Generated by graphviz version 2.38.0 (20140413.2041)
 -->
<!-- Title: G Pages: 1 -->
<svg width="4663pt" height="538pt"
 viewBox="0.00 0.00 4663.00 538.40" xmlns="http://www.w3.org/2000/svg" xmlns:xlink="http://www.w3.org/1999/xlink">
<g id="graph0" class="graph" transform="scale(1 1) rotate(0) translate(4 534.4)">
<title>G</title>
<polygon fill="white" stroke="none" points="-4,4 -4,-534.4 4659,-534.4 4659,4 -4,4"/>
<g id="clust1" class="cluster"><title>cluster_0</title>
<polygon fill="lightgray" stroke="lightgrey" points="8,-8 8,-514 1067,-514 1067,-8 8,-8"/>
<text text-anchor="middle" x="537.529" y="-483" font-family="Times,serif" font-size="30.00">/home/rubuntu/Desktop/OpenRainbow/openrainbow&#45;poc&#45;50.003/centralserver/index.js</text>
</g>
<g id="clust2" class="cluster"><title>cluster_1</title>
<polygon fill="lightgray" stroke="lightgrey" points="1075,-66.6 1075,-522.4 2140,-522.4 2140,-66.6 1075,-66.6"/>
<text text-anchor="middle" x="1607.84" y="-491.4" font-family="Times,serif" font-size="30.00">/home/rubuntu/Desktop/OpenRainbow/openrainbow&#45;poc&#45;50.003/centralserver/server.js</text>
</g>
<g id="clust3" class="cluster"><title>cluster_2</title>
<polygon fill="lightgray" stroke="lightgrey" points="2148,-87.4 2148,-327.8 3582,-327.8 3582,-87.4 2148,-87.4"/>
<text text-anchor="middle" x="2730.01" y="-296.8" font-family="Times,serif" font-size="30.00">/home/rubuntu/Desktop/OpenRainbow/openrainbow&#45;poc&#45;50.003/centralserver/rainbowShake.js</text>
</g>
<g id="clust4" class="cluster"><title>cluster_3</title>
<polygon fill="lightgray" stroke="lightgrey" points="3590,-87.4 3590,-501.2 4647,-501.2 4647,-87.4 3590,-87.4"/>
<text text-anchor="middle" x="4118.68" y="-470.2" font-family="Times,serif" font-size="30.00">/home/rubuntu/Desktop/OpenRainbow/openrainbow&#45;poc&#45;50.003/centralserver/tester.js</text>
</g>
<!-- 0 -->
<g id="node1" class="node"><title>0</title>
<polygon fill="lightyellow" stroke="black" points="787.036,-357.5 787.036,-448.7 1058.96,-448.7 1058.96,-357.5 787.036,-357.5"/>
<text text-anchor="middle" x="923" y="-432.1" font-family="Times,serif" font-size="14.00">«GLOBAL»</text>
<polyline fill="none" stroke="black" points="787.036,-423.9 1058.96,-423.9 "/>
<text text-anchor="start" x="795.036" y="-407.3" font-family="Times,serif" font-size="14.00">&#45;RainbowSDK : variable = rainbow&#45;node&#45;sdk</text>
<text text-anchor="start" x="795.036" y="-390.5" font-family="Times,serif" font-size="14.00">&#45;options : object</text>
<polyline fill="none" stroke="black" points="787.036,-382.3 1058.96,-382.3 "/>
<text text-anchor="start" x="795.036" y="-365.7" font-family="Times,serif" font-size="14.00">&#45;undefined(options)</text>
</g>
<!-- 4 -->
<g id="node2" class="node"><title>4</title>
<polygon fill="lightblue" stroke="black" points="669.96,-382.3 669.96,-423.9 780.04,-423.9 780.04,-382.3 669.96,-382.3"/>
<text text-anchor="middle" x="725" y="-407.3" font-family="Times,serif" font-size="14.00">«FUNCTION»</text>
<text text-anchor="middle" x="725" y="-390.5" font-family="Times,serif" font-size="14.00"> function</text>
</g>
<!-- 5 -->
<g id="node3" class="node"><title>5</title>
<polygon fill="lightblue" stroke="black" points="552.96,-382.3 552.96,-423.9 663.04,-423.9 663.04,-382.3 552.96,-382.3"/>
<text text-anchor="middle" x="608" y="-407.3" font-family="Times,serif" font-size="14.00">«FUNCTION»</text>
<text text-anchor="middle" x="608" y="-390.5" font-family="Times,serif" font-size="14.00"> function</text>
</g>
<!-- 6 -->
<g id="node4" class="node"><title>6</title>
<polygon fill="lightblue" stroke="black" points="425.907,-369.9 425.907,-436.3 546.093,-436.3 546.093,-369.9 425.907,-369.9"/>
<text text-anchor="middle" x="486" y="-419.7" font-family="Times,serif" font-size="14.00">«FUNCTION»</text>
<text text-anchor="middle" x="486" y="-402.9" font-family="Times,serif" font-size="14.00"> function</text>
<polyline fill="none" stroke="black" points="425.907,-394.7 546.093,-394.7 "/>
<text text-anchor="start" x="433.907" y="-378.1" font-family="Times,serif" font-size="14.00">&#45;bubbles : variable</text>
</g>
<!-- 7 -->
<g id="node5" class="node"><title>7</title>
<polygon fill="lightblue" stroke="black" points="273.079,-344.7 273.079,-461.5 418.921,-461.5 418.921,-344.7 273.079,-344.7"/>
<text text-anchor="middle" x="346" y="-444.9" font-family="Times,serif" font-size="14.00">«FUNCTION»</text>
<text text-anchor="middle" x="346" y="-428.1" font-family="Times,serif" font-size="14.00"> function</text>
<polyline fill="none" stroke="black" points="273.079,-419.9 418.921,-419.9 "/>
<text text-anchor="start" x="281.079" y="-403.3" font-family="Times,serif" font-size="14.00">&#45;bubble : object</text>
<text text-anchor="start" x="281.079" y="-386.5" font-family="Times,serif" font-size="14.00">&#45;conversation : object</text>
<text text-anchor="start" x="281.079" y="-369.7" font-family="Times,serif" font-size="14.00">&#45;result : variable</text>
<text text-anchor="start" x="281.079" y="-352.9" font-family="Times,serif" font-size="14.00">&#45;resultbubble : variable</text>
</g>
<!-- 8 -->
<g id="node6" class="node"><title>8</title>
<polygon fill="khaki" stroke="black" points="16.48,-200.5 16.48,-242.1 121.52,-242.1 121.52,-200.5 16.48,-200.5"/>
<text text-anchor="middle" x="69" y="-225.5" font-family="Times,serif" font-size="14.00">«BLOCK»</text>
<text text-anchor="middle" x="69" y="-208.7" font-family="Times,serif" font-size="14.00"> CallExpression</text>
</g>
<!-- 7&#45;&gt;8 -->
<g id="edge1" class="edge"><title>7&#45;&gt;8</title>
<path fill="none" stroke="black" d="M261.886,-358.428C242.037,-349.673 220.635,-341.444 200,-335.8 184.046,-331.436 139.73,-337.024 126,-327.8 96.2773,-307.832 80.7638,-267.071 73.7831,-242.472"/>
<polygon fill="black" stroke="black" points="262.123,-358.535 269.238,-357.362 273.057,-363.479 265.941,-364.652 262.123,-358.535"/>
</g>
<!-- 9 -->
<g id="node7" class="node"><title>9</title>
<polygon fill="khaki" stroke="black" points="128.505,-200.5 128.505,-242.1 261.495,-242.1 261.495,-200.5 128.505,-200.5"/>
<text text-anchor="middle" x="195" y="-225.5" font-family="Times,serif" font-size="14.00">«BLOCK»</text>
<text text-anchor="middle" x="195" y="-208.7" font-family="Times,serif" font-size="14.00"> VariableDeclaration</text>
</g>
<!-- 7&#45;&gt;9 -->
<g id="edge2" class="edge"><title>7&#45;&gt;9</title>
<path fill="none" stroke="black" d="M272.043,-335.743C269.622,-333.104 267.266,-330.452 265,-327.8 241.437,-300.228 219.169,-264.371 206.315,-242.363"/>
<polygon fill="black" stroke="black" points="272.229,-335.939 279.261,-337.538 280.489,-344.643 273.458,-343.044 272.229,-335.939"/>
</g>
<!-- 10 -->
<g id="node8" class="node"><title>10</title>
<polygon fill="lightblue" stroke="black" points="268.395,-179.7 268.395,-262.9 621.605,-262.9 621.605,-179.7 268.395,-179.7"/>
<text text-anchor="middle" x="445" y="-246.3" font-family="Times,serif" font-size="14.00">«FUNCTION»</text>
<text text-anchor="middle" x="445" y="-229.5" font-family="Times,serif" font-size="14.00"> function</text>
<polyline fill="none" stroke="black" points="268.395,-221.3 621.605,-221.3 "/>
<text text-anchor="start" x="276.395" y="-204.7" font-family="Times,serif" font-size="14.00">&#45;messageSent : variable = I got it</text>
<text text-anchor="start" x="276.395" y="-187.9" font-family="Times,serif" font-size="14.00">&#45;messageSentreply : variable = I got it, FR, , subject, mess...</text>
</g>
<!-- 7&#45;&gt;10 -->
<g id="edge3" class="edge"><title>7&#45;&gt;10</title>
<path fill="none" stroke="black" d="M383.79,-333.468C396.885,-309.685 411.139,-283.797 422.595,-262.991"/>
<polygon fill="black" stroke="black" points="383.657,-333.709 384.267,-340.894 377.869,-344.22 377.259,-337.035 383.657,-333.709"/>
</g>
<!-- 15 -->
<g id="node13" class="node"><title>15</title>
<polygon fill="lightblue" stroke="black" points="628.96,-200.5 628.96,-242.1 739.04,-242.1 739.04,-200.5 628.96,-200.5"/>
<text text-anchor="middle" x="684" y="-225.5" font-family="Times,serif" font-size="14.00">«FUNCTION»</text>
<text text-anchor="middle" x="684" y="-208.7" font-family="Times,serif" font-size="14.00"> function</text>
</g>
<!-- 7&#45;&gt;15 -->
<g id="edge8" class="edge"><title>7&#45;&gt;15</title>
<path fill="none" stroke="black" d="M416.415,-338.683C418.588,-337.638 420.784,-336.673 423,-335.8 443.899,-327.568 605.853,-339.545 625,-327.8 655.947,-308.817 672.011,-267.311 679.175,-242.392"/>
<polygon fill="black" stroke="black" points="416.291,-338.751 412.953,-345.144 405.769,-344.521 409.107,-338.129 416.291,-338.751"/>
</g>
<!-- 16 -->
<g id="node14" class="node"><title>16</title>
<polygon fill="lightblue" stroke="black" points="745.96,-200.5 745.96,-242.1 856.04,-242.1 856.04,-200.5 745.96,-200.5"/>
<text text-anchor="middle" x="801" y="-225.5" font-family="Times,serif" font-size="14.00">«FUNCTION»</text>
<text text-anchor="middle" x="801" y="-208.7" font-family="Times,serif" font-size="14.00"> function</text>
</g>
<!-- 7&#45;&gt;16 -->
<g id="edge9" class="edge"><title>7&#45;&gt;16</title>
<path fill="none" stroke="black" d="M416.399,-338.64C418.576,-337.607 420.778,-336.657 423,-335.8 456.082,-323.046 711.644,-346.12 742,-327.8 773.083,-309.042 789.1,-267.457 796.218,-242.463"/>
<polygon fill="black" stroke="black" points="416.28,-338.704 412.913,-345.081 405.732,-344.426 409.098,-338.049 416.28,-338.704"/>
</g>
<!-- 17 -->
<g id="node15" class="node"><title>17</title>
<polygon fill="lightblue" stroke="black" points="862.96,-200.5 862.96,-242.1 973.04,-242.1 973.04,-200.5 862.96,-200.5"/>
<text text-anchor="middle" x="918" y="-225.5" font-family="Times,serif" font-size="14.00">«FUNCTION»</text>
<text text-anchor="middle" x="918" y="-208.7" font-family="Times,serif" font-size="14.00"> (receipt)</text>
</g>
<!-- 7&#45;&gt;17 -->
<g id="edge10" class="edge"><title>7&#45;&gt;17</title>
<path fill="none" stroke="black" d="M415.929,-338.838C418.259,-337.727 420.618,-336.709 423,-335.8 445.634,-327.161 838.216,-340.248 859,-327.8 890.146,-309.146 906.141,-267.524 913.238,-242.496"/>
<polygon fill="black" stroke="black" points="415.786,-338.917 412.434,-345.302 405.251,-344.664 408.603,-338.279 415.786,-338.917"/>
</g>
<!-- 11 -->
<g id="node9" class="node"><title>11</title>
<polygon fill="khaki" stroke="black" points="340.48,-95.9 340.48,-137.5 445.52,-137.5 445.52,-95.9 340.48,-95.9"/>
<text text-anchor="middle" x="393" y="-120.9" font-family="Times,serif" font-size="14.00">«BLOCK»</text>
<text text-anchor="middle" x="393" y="-104.1" font-family="Times,serif" font-size="14.00"> CallExpression</text>
</g>
<!-- 10&#45;&gt;11 -->
<g id="edge4" class="edge"><title>10&#45;&gt;11</title>
<path fill="none" stroke="black" d="M418.747,-168.501C413.163,-157.483 407.594,-146.494 403.071,-137.571"/>
<polygon fill="black" stroke="black" points="418.874,-168.751 425.154,-172.295 424.299,-179.455 418.018,-175.911 418.874,-168.751"/>
</g>
<!-- 12 -->
<g id="node10" class="node"><title>12</title>
<polygon fill="khaki" stroke="black" points="452.62,-95.9 452.62,-137.5 539.38,-137.5 539.38,-95.9 452.62,-95.9"/>
<text text-anchor="middle" x="496" y="-120.9" font-family="Times,serif" font-size="14.00">«BLOCK»</text>
<text text-anchor="middle" x="496" y="-104.1" font-family="Times,serif" font-size="14.00"> IfStatement</text>
</g>
<!-- 10&#45;&gt;12 -->
<g id="edge5" class="edge"><title>10&#45;&gt;12</title>
<path fill="none" stroke="black" d="M470.748,-168.501C476.225,-157.483 481.687,-146.494 486.123,-137.571"/>
<polygon fill="black" stroke="black" points="470.645,-168.709 471.556,-175.863 465.303,-179.455 464.392,-172.302 470.645,-168.709"/>
</g>
<!-- 13 -->
<g id="node11" class="node"><title>13</title>
<polygon fill="khaki" stroke="black" points="380.48,-16.5 380.48,-58.1 485.52,-58.1 485.52,-16.5 380.48,-16.5"/>
<text text-anchor="middle" x="433" y="-41.5" font-family="Times,serif" font-size="14.00">«BLOCK»</text>
<text text-anchor="middle" x="433" y="-24.7" font-family="Times,serif" font-size="14.00"> CallExpression</text>
</g>
<!-- 12&#45;&gt;13 -->
<g id="edge6" class="edge"><title>12&#45;&gt;13</title>
<path fill="none" stroke="black" d="M472.105,-86.3434C464.443,-76.9304 456.143,-66.7331 449.169,-58.1649"/>
<polygon fill="black" stroke="black" points="472.201,-86.4608 479.091,-88.5891 479.776,-95.7676 472.886,-93.6393 472.201,-86.4608"/>
</g>
<!-- 14 -->
<g id="node12" class="node"><title>14</title>
<polygon fill="khaki" stroke="black" points="492.505,-16.5 492.505,-58.1 625.495,-58.1 625.495,-16.5 492.505,-16.5"/>
<text text-anchor="middle" x="559" y="-41.5" font-family="Times,serif" font-size="14.00">«BLOCK»</text>
<text text-anchor="middle" x="559" y="-24.7" font-family="Times,serif" font-size="14.00"> VariableDeclaration</text>
</g>
<!-- 12&#45;&gt;14 -->
<g id="edge7" class="edge"><title>12&#45;&gt;14</title>
<path fill="none" stroke="black" d="M519.895,-86.3434C527.557,-76.9304 535.857,-66.7331 542.831,-58.1649"/>
<polygon fill="black" stroke="black" points="519.799,-86.4608 519.114,-93.6393 512.224,-95.7676 512.909,-88.5891 519.799,-86.4608"/>
</g>
<!-- 18 -->
<g id="node16" class="node"><title>18</title>
<polygon fill="lightblue" stroke="black" points="85.96,-382.3 85.96,-423.9 196.04,-423.9 196.04,-382.3 85.96,-382.3"/>
<text text-anchor="middle" x="141" y="-407.3" font-family="Times,serif" font-size="14.00">«FUNCTION»</text>
<text text-anchor="middle" x="141" y="-390.5" font-family="Times,serif" font-size="14.00"> function</text>
</g>
<!-- 1 -->
<g id="node17" class="node"><title>1</title>
<polygon fill="lightyellow" stroke="black" points="1845.85,-336.3 1845.85,-469.9 2132.15,-469.9 2132.15,-336.3 1845.85,-336.3"/>
<text text-anchor="middle" x="1989" y="-453.3" font-family="Times,serif" font-size="14.00">«GLOBAL»</text>
<polyline fill="none" stroke="black" points="1845.85,-445.1 2132.15,-445.1 "/>
<text text-anchor="start" x="1853.85" y="-428.5" font-family="Times,serif" font-size="14.00">&#45;app : variable</text>
<text text-anchor="start" x="1853.85" y="-411.7" font-family="Times,serif" font-size="14.00">&#45;clientProperties : variable = .clientCredentials</text>
<text text-anchor="start" x="1853.85" y="-394.9" font-family="Times,serif" font-size="14.00">&#45;clientSDK : variable = rainbow&#45;node&#45;sdk</text>
<text text-anchor="start" x="1853.85" y="-378.1" font-family="Times,serif" font-size="14.00">&#45;cors : variable = cors</text>
<text text-anchor="start" x="1853.85" y="-361.3" font-family="Times,serif" font-size="14.00">&#45;express : variable = express</text>
<text text-anchor="start" x="1853.85" y="-344.5" font-family="Times,serif" font-size="14.00">&#45;rainbowMotherload : variable = .rainbowShake</text>
</g>
<!-- 2 -->
<g id="node27" class="node"><title>2</title>
<polygon fill="lightyellow" stroke="black" points="3281.73,-167.3 3281.73,-275.3 3574.27,-275.3 3574.27,-167.3 3281.73,-167.3"/>
<text text-anchor="middle" x="3428" y="-258.7" font-family="Times,serif" font-size="14.00">«GLOBAL»</text>
<polyline fill="none" stroke="black" points="3281.73,-250.5 3574.27,-250.5 "/>
<text text-anchor="start" x="3289.73" y="-233.9" font-family="Times,serif" font-size="14.00">&#45;NodeSDK : variable = rainbow&#45;node&#45;sdk</text>
<text text-anchor="start" x="3289.73" y="-217.1" font-family="Times,serif" font-size="14.00">&#45;adminCredentials : variable = .adminCredentials</text>
<text text-anchor="start" x="3289.73" y="-200.3" font-family="Times,serif" font-size="14.00">&#45;onlineStatus = undefined</text>
<polyline fill="none" stroke="black" points="3281.73,-192.1 3574.27,-192.1 "/>
<text text-anchor="start" x="3289.73" y="-175.5" font-family="Times,serif" font-size="14.00">&#45;undefined(adminCredentials)</text>
</g>
<!-- 1&#45;&gt;2 -->
<g id="edge11" class="edge"><title>1&#45;&gt;2</title>
<path fill="none" stroke="black" d="M2139.83,-398.053C2448.68,-389.113 3135.27,-365.659 3268.35,-330.69"/>
<polygon fill="black" stroke="black" points="3269.43,-334.023 3278,-327.8 3267.42,-327.318 3269.43,-334.023"/>
</g>
<!-- 19 -->
<g id="node18" class="node"><title>19</title>
<polygon fill="lightblue" stroke="black" points="1549.96,-382.3 1549.96,-423.9 1660.04,-423.9 1660.04,-382.3 1549.96,-382.3"/>
<text text-anchor="middle" x="1605" y="-407.3" font-family="Times,serif" font-size="14.00">«FUNCTION»</text>
<text text-anchor="middle" x="1605" y="-390.5" font-family="Times,serif" font-size="14.00"> ()</text>
</g>
<!-- 20 -->
<g id="node19" class="node"><title>20</title>
<polygon fill="lightblue" stroke="black" points="1315.96,-200.5 1315.96,-242.1 1426.04,-242.1 1426.04,-200.5 1315.96,-200.5"/>
<text text-anchor="middle" x="1371" y="-225.5" font-family="Times,serif" font-size="14.00">«FUNCTION»</text>
<text text-anchor="middle" x="1371" y="-208.7" font-family="Times,serif" font-size="14.00"> function</text>
</g>
<!-- 19&#45;&gt;20 -->
<g id="edge12" class="edge"><title>19&#45;&gt;20</title>
<path fill="none" stroke="black" d="M1551.88,-376.711C1526.88,-363.658 1497.3,-346.559 1473,-327.8 1439.32,-301.799 1406.18,-264.826 1387.2,-242.26"/>
<polygon fill="black" stroke="black" points="1551.96,-376.756 1559.13,-375.935 1562.64,-382.233 1555.48,-383.053 1551.96,-376.756"/>
</g>
<!-- 22 -->
<g id="node21" class="node"><title>22</title>
<polygon fill="lightblue" stroke="black" points="1476.96,-200.5 1476.96,-242.1 1587.04,-242.1 1587.04,-200.5 1476.96,-200.5"/>
<text text-anchor="middle" x="1532" y="-225.5" font-family="Times,serif" font-size="14.00">«FUNCTION»</text>
<text text-anchor="middle" x="1532" y="-208.7" font-family="Times,serif" font-size="14.00"> function</text>
</g>
<!-- 19&#45;&gt;22 -->
<g id="edge14" class="edge"><title>19&#45;&gt;22</title>
<path fill="none" stroke="black" d="M1592.21,-370.599C1577.2,-333.627 1552.76,-273.425 1540.13,-242.318"/>
<polygon fill="black" stroke="black" points="1592.39,-371.053 1598.36,-375.107 1596.91,-382.171 1590.95,-378.117 1592.39,-371.053"/>
</g>
<!-- 24 -->
<g id="node23" class="node"><title>24</title>
<polygon fill="lightblue" stroke="black" points="1622.96,-200.5 1622.96,-242.1 1733.04,-242.1 1733.04,-200.5 1622.96,-200.5"/>
<text text-anchor="middle" x="1678" y="-225.5" font-family="Times,serif" font-size="14.00">«FUNCTION»</text>
<text text-anchor="middle" x="1678" y="-208.7" font-family="Times,serif" font-size="14.00"> function</text>
</g>
<!-- 19&#45;&gt;24 -->
<g id="edge16" class="edge"><title>19&#45;&gt;24</title>
<path fill="none" stroke="black" d="M1617.79,-370.599C1632.8,-333.627 1657.24,-273.425 1669.87,-242.318"/>
<polygon fill="black" stroke="black" points="1617.61,-371.053 1619.05,-378.117 1613.09,-382.171 1611.64,-375.107 1617.61,-371.053"/>
</g>
<!-- 26 -->
<g id="node25" class="node"><title>26</title>
<polygon fill="lightblue" stroke="black" points="1787.96,-200.5 1787.96,-242.1 1898.04,-242.1 1898.04,-200.5 1787.96,-200.5"/>
<text text-anchor="middle" x="1843" y="-225.5" font-family="Times,serif" font-size="14.00">«FUNCTION»</text>
<text text-anchor="middle" x="1843" y="-208.7" font-family="Times,serif" font-size="14.00"> function</text>
</g>
<!-- 19&#45;&gt;26 -->
<g id="edge18" class="edge"><title>19&#45;&gt;26</title>
<path fill="none" stroke="black" d="M1657.68,-376.65C1682.7,-363.531 1712.43,-346.394 1737,-327.8 1771.57,-301.633 1806.15,-264.71 1826.01,-242.2"/>
<polygon fill="black" stroke="black" points="1657.58,-376.702 1654.08,-383.007 1646.92,-382.202 1650.42,-375.896 1657.58,-376.702"/>
</g>
<!-- 21 -->
<g id="node20" class="node"><title>21</title>
<polygon fill="lightblue" stroke="black" points="1236.36,-83.5 1236.36,-149.9 1419.64,-149.9 1419.64,-83.5 1236.36,-83.5"/>
<text text-anchor="middle" x="1328" y="-133.3" font-family="Times,serif" font-size="14.00">«FUNCTION»</text>
<text text-anchor="middle" x="1328" y="-116.5" font-family="Times,serif" font-size="14.00"> function</text>
<polyline fill="none" stroke="black" points="1236.36,-108.3 1419.64,-108.3 "/>
<text text-anchor="start" x="1244.36" y="-91.7" font-family="Times,serif" font-size="14.00">&#45;loginCreds : variable = await</text>
</g>
<!-- 20&#45;&gt;21 -->
<g id="edge13" class="edge"><title>20&#45;&gt;21</title>
<path fill="none" stroke="black" d="M1357.84,-188.891C1352.67,-176.575 1346.75,-162.449 1341.56,-150.044"/>
<polygon fill="black" stroke="black" points="1357.87,-188.962 1363.87,-192.95 1362.5,-200.03 1356.5,-196.042 1357.87,-188.962"/>
</g>
<!-- 23 -->
<g id="node22" class="node"><title>23</title>
<polygon fill="lightblue" stroke="black" points="1426.36,-75.1 1426.36,-158.3 1609.64,-158.3 1609.64,-75.1 1426.36,-75.1"/>
<text text-anchor="middle" x="1518" y="-141.7" font-family="Times,serif" font-size="14.00">«FUNCTION»</text>
<text text-anchor="middle" x="1518" y="-124.9" font-family="Times,serif" font-size="14.00"> function</text>
<polyline fill="none" stroke="black" points="1426.36,-116.7 1609.64,-116.7 "/>
<text text-anchor="start" x="1434.36" y="-100.1" font-family="Times,serif" font-size="14.00">&#45;loginCreds : variable = await</text>
<text text-anchor="start" x="1434.36" y="-83.3" font-family="Times,serif" font-size="14.00">&#45;nameIntended : object</text>
</g>
<!-- 22&#45;&gt;23 -->
<g id="edge15" class="edge"><title>22&#45;&gt;23</title>
<path fill="none" stroke="black" d="M1527.59,-187.957C1526.3,-178.548 1524.88,-168.149 1523.54,-158.301"/>
<polygon fill="black" stroke="black" points="1527.61,-188.14 1532.39,-193.544 1529.23,-200.03 1524.46,-194.625 1527.61,-188.14"/>
</g>
<!-- 25 -->
<g id="node24" class="node"><title>25</title>
<polygon fill="lightblue" stroke="black" points="1616.52,-83.5 1616.52,-149.9 1769.48,-149.9 1769.48,-83.5 1616.52,-83.5"/>
<text text-anchor="middle" x="1693" y="-133.3" font-family="Times,serif" font-size="14.00">«FUNCTION»</text>
<text text-anchor="middle" x="1693" y="-116.5" font-family="Times,serif" font-size="14.00"> function</text>
<polyline fill="none" stroke="black" points="1616.52,-108.3 1769.48,-108.3 "/>
<text text-anchor="start" x="1624.52" y="-91.7" font-family="Times,serif" font-size="14.00">&#45;token : variable = await</text>
</g>
<!-- 24&#45;&gt;25 -->
<g id="edge17" class="edge"><title>24&#45;&gt;25</title>
<path fill="none" stroke="black" d="M1682.7,-188.127C1684.48,-175.994 1686.5,-162.194 1688.27,-150.044"/>
<polygon fill="black" stroke="black" points="1682.7,-188.156 1685.79,-194.671 1680.96,-200.03 1677.87,-193.514 1682.7,-188.156"/>
</g>
<!-- 27 -->
<g id="node26" class="node"><title>27</title>
<polygon fill="lightblue" stroke="black" points="1776.64,-75.1 1776.64,-158.3 1979.36,-158.3 1979.36,-75.1 1776.64,-75.1"/>
<text text-anchor="middle" x="1878" y="-141.7" font-family="Times,serif" font-size="14.00">«FUNCTION»</text>
<text text-anchor="middle" x="1878" y="-124.9" font-family="Times,serif" font-size="14.00"> function</text>
<polyline fill="none" stroke="black" points="1776.64,-116.7 1979.36,-116.7 "/>
<text text-anchor="start" x="1784.64" y="-100.1" font-family="Times,serif" font-size="14.00">&#45;email : object</text>
<text text-anchor="start" x="1784.64" y="-83.3" font-family="Times,serif" font-size="14.00">&#45;listOfContacts : variable = await</text>
</g>
<!-- 26&#45;&gt;27 -->
<g id="edge19" class="edge"><title>26&#45;&gt;27</title>
<path fill="none" stroke="black" d="M1853.81,-188.597C1857.08,-179.021 1860.71,-168.373 1864.15,-158.301"/>
<polygon fill="black" stroke="black" points="1853.79,-188.672 1855.64,-195.642 1849.91,-200.03 1848.07,-193.059 1853.79,-188.672"/>
</g>
<!-- 28 -->
<g id="node28" class="node"><title>28</title>
<polygon fill="lightblue" stroke="black" points="3164.96,-200.5 3164.96,-242.1 3275.04,-242.1 3275.04,-200.5 3164.96,-200.5"/>
<text text-anchor="middle" x="3220" y="-225.5" font-family="Times,serif" font-size="14.00">«FUNCTION»</text>
<text text-anchor="middle" x="3220" y="-208.7" font-family="Times,serif" font-size="14.00"> init()</text>
</g>
<!-- 29 -->
<g id="node29" class="node"><title>29</title>
<polygon fill="lightblue" stroke="black" points="3164.96,-95.9 3164.96,-137.5 3275.04,-137.5 3275.04,-95.9 3164.96,-95.9"/>
<text text-anchor="middle" x="3220" y="-120.9" font-family="Times,serif" font-size="14.00">«FUNCTION»</text>
<text text-anchor="middle" x="3220" y="-104.1" font-family="Times,serif" font-size="14.00"> (err)</text>
</g>
<!-- 28&#45;&gt;29 -->
<g id="edge20" class="edge"><title>28&#45;&gt;29</title>
<path fill="none" stroke="black" d="M3220,-187.627C3220,-171.177 3220,-151.77 3220,-137.579"/>
<polygon fill="black" stroke="black" points="3220,-188.03 3224,-194.03 3220,-200.03 3216,-194.03 3220,-188.03"/>
</g>
<!-- 30 -->
<g id="node30" class="node"><title>30</title>
<polygon fill="khaki" stroke="black" points="2912.31,-188.1 2912.31,-254.5 3157.69,-254.5 3157.69,-188.1 2912.31,-188.1"/>
<text text-anchor="middle" x="3035" y="-237.9" font-family="Times,serif" font-size="14.00">«FUNCTION&#45;EXPRESSION&#45;NAME»</text>
<text text-anchor="middle" x="3035" y="-221.1" font-family="Times,serif" font-size="14.00"> createGuests(talkTime)</text>
<polyline fill="none" stroke="black" points="2912.31,-212.9 3157.69,-212.9 "/>
<text text-anchor="start" x="2920.31" y="-196.3" font-family="Times,serif" font-size="14.00">&#45;result : variable = await</text>
</g>
<!-- 31 -->
<g id="node31" class="node"><title>31</title>
<polygon fill="khaki" stroke="black" points="2660.31,-179.7 2660.31,-262.9 2905.69,-262.9 2905.69,-179.7 2660.31,-179.7"/>
<text text-anchor="middle" x="2783" y="-246.3" font-family="Times,serif" font-size="14.00">«FUNCTION&#45;EXPRESSION&#45;NAME»</text>
<text text-anchor="middle" x="2783" y="-229.5" font-family="Times,serif" font-size="14.00"> createGuestWithTokenization()</text>
<polyline fill="none" stroke="black" points="2660.31,-221.3 2905.69,-221.3 "/>
<text text-anchor="start" x="2668.31" y="-204.7" font-family="Times,serif" font-size="14.00">&#45;result : variable = await</text>
<text text-anchor="start" x="2668.31" y="-187.9" font-family="Times,serif" font-size="14.00">&#45;token : variable = await</text>
</g>
<!-- 32 -->
<g id="node32" class="node"><title>32</title>
<polygon fill="khaki" stroke="black" points="2408.31,-188.1 2408.31,-254.5 2653.69,-254.5 2653.69,-188.1 2408.31,-188.1"/>
<text text-anchor="middle" x="2531" y="-237.9" font-family="Times,serif" font-size="14.00">«FUNCTION&#45;EXPRESSION&#45;NAME»</text>
<text text-anchor="middle" x="2531" y="-221.1" font-family="Times,serif" font-size="14.00"> createGuestWithName(name,ticketID)</text>
<polyline fill="none" stroke="black" points="2408.31,-212.9 2653.69,-212.9 "/>
<text text-anchor="start" x="2416.31" y="-196.3" font-family="Times,serif" font-size="14.00">&#45;result : variable = await</text>
</g>
<!-- 33 -->
<g id="node33" class="node"><title>33</title>
<polygon fill="khaki" stroke="black" points="2156.31,-179.7 2156.31,-262.9 2401.69,-262.9 2401.69,-179.7 2156.31,-179.7"/>
<text text-anchor="middle" x="2279" y="-246.3" font-family="Times,serif" font-size="14.00">«FUNCTION&#45;EXPRESSION&#45;NAME»</text>
<text text-anchor="middle" x="2279" y="-229.5" font-family="Times,serif" font-size="14.00"> queryAgentStatus(agentEmail)</text>
<polyline fill="none" stroke="black" points="2156.31,-221.3 2401.69,-221.3 "/>
<text text-anchor="start" x="2164.31" y="-204.7" font-family="Times,serif" font-size="14.00">+module.exports : module.exports</text>
<text text-anchor="start" x="2164.31" y="-187.9" font-family="Times,serif" font-size="14.00">&#45;data2 : variable = await</text>
</g>
<!-- 3 -->
<g id="node34" class="node"><title>3</title>
<polygon fill="lightyellow" stroke="black" points="4151.73,-357.5 4151.73,-448.7 4444.27,-448.7 4444.27,-357.5 4151.73,-357.5"/>
<text text-anchor="middle" x="4298" y="-432.1" font-family="Times,serif" font-size="14.00">«GLOBAL»</text>
<polyline fill="none" stroke="black" points="4151.73,-423.9 4444.27,-423.9 "/>
<text text-anchor="start" x="4159.73" y="-407.3" font-family="Times,serif" font-size="14.00">&#45;NodeSDK : variable = rainbow&#45;node&#45;sdk</text>
<text text-anchor="start" x="4159.73" y="-390.5" font-family="Times,serif" font-size="14.00">&#45;adminCredentials : variable = .adminCredentials</text>
<polyline fill="none" stroke="black" points="4151.73,-382.3 4444.27,-382.3 "/>
<text text-anchor="start" x="4159.73" y="-365.7" font-family="Times,serif" font-size="14.00">&#45;undefined(adminCredentials)</text>
</g>
<!-- 34 -->
<g id="node35" class="node"><title>34</title>
<polygon fill="lightblue" stroke="black" points="3779.96,-369.9 3779.96,-436.3 3950.04,-436.3 3950.04,-369.9 3779.96,-369.9"/>
<text text-anchor="middle" x="3865" y="-419.7" font-family="Times,serif" font-size="14.00">«FUNCTION»</text>
<text text-anchor="middle" x="3865" y="-402.9" font-family="Times,serif" font-size="14.00"> ()</text>
<polyline fill="none" stroke="black" points="3779.96,-394.7 3950.04,-394.7 "/>
<text text-anchor="start" x="3787.96" y="-378.1" font-family="Times,serif" font-size="14.00">&#45;talkTime : variable = 3600</text>
</g>
<!-- 35 -->
<g id="node36" class="node"><title>35</title>
<polygon fill="lightblue" stroke="black" points="3644.96,-200.5 3644.96,-242.1 3755.04,-242.1 3755.04,-200.5 3644.96,-200.5"/>
<text text-anchor="middle" x="3700" y="-225.5" font-family="Times,serif" font-size="14.00">«FUNCTION»</text>
<text text-anchor="middle" x="3700" y="-208.7" font-family="Times,serif" font-size="14.00"> function</text>
</g>
<!-- 34&#45;&gt;35 -->
<g id="edge21" class="edge"><title>34&#45;&gt;35</title>
<path fill="none" stroke="black" d="M3799.34,-362.993C3785.03,-352.661 3770.69,-340.74 3759,-327.8 3735.51,-301.794 3717.56,-264.822 3707.92,-242.258"/>
<polygon fill="black" stroke="black" points="3799.37,-363.015 3806.58,-363.171 3809.21,-369.885 3802,-369.73 3799.37,-363.015"/>
</g>
<!-- 36 -->
<g id="node37" class="node"><title>36</title>
<polygon fill="lightblue" stroke="black" points="3761.96,-200.5 3761.96,-242.1 3872.04,-242.1 3872.04,-200.5 3761.96,-200.5"/>
<text text-anchor="middle" x="3817" y="-225.5" font-family="Times,serif" font-size="14.00">«FUNCTION»</text>
<text text-anchor="middle" x="3817" y="-208.7" font-family="Times,serif" font-size="14.00"> function</text>
</g>
<!-- 34&#45;&gt;36 -->
<g id="edge22" class="edge"><title>34&#45;&gt;36</title>
<path fill="none" stroke="black" d="M3853.12,-357.584C3843.24,-320.601 3829.66,-269.729 3822.29,-242.103"/>
<polygon fill="black" stroke="black" points="3853.21,-357.946 3858.62,-362.711 3856.31,-369.54 3850.9,-364.774 3853.21,-357.946"/>
</g>
<!-- 37 -->
<g id="node38" class="node"><title>37</title>
<polygon fill="lightblue" stroke="black" points="3878.96,-200.5 3878.96,-242.1 3989.04,-242.1 3989.04,-200.5 3878.96,-200.5"/>
<text text-anchor="middle" x="3934" y="-225.5" font-family="Times,serif" font-size="14.00">«FUNCTION»</text>
<text text-anchor="middle" x="3934" y="-208.7" font-family="Times,serif" font-size="14.00"> function</text>
</g>
<!-- 34&#45;&gt;37 -->
<g id="edge23" class="edge"><title>34&#45;&gt;37</title>
<path fill="none" stroke="black" d="M3881.9,-358.065C3896.11,-321.044 3915.75,-269.849 3926.4,-242.103"/>
<polygon fill="black" stroke="black" points="3881.79,-358.336 3883.38,-365.371 3877.5,-369.54 3875.91,-362.505 3881.79,-358.336"/>
</g>
<!-- 40 -->
<g id="node41" class="node"><title>40</title>
<polygon fill="lightblue" stroke="black" points="3995.96,-200.5 3995.96,-242.1 4106.04,-242.1 4106.04,-200.5 3995.96,-200.5"/>
<text text-anchor="middle" x="4051" y="-225.5" font-family="Times,serif" font-size="14.00">«FUNCTION»</text>
<text text-anchor="middle" x="4051" y="-208.7" font-family="Times,serif" font-size="14.00"> function</text>
</g>
<!-- 34&#45;&gt;40 -->
<g id="edge26" class="edge"><title>34&#45;&gt;40</title>
<path fill="none" stroke="black" d="M3946.07,-363.397C3962.46,-353.274 3978.72,-341.339 3992,-327.8 4016.69,-302.629 4034.38,-265.06 4043.63,-242.206"/>
<polygon fill="black" stroke="black" points="3945.63,-363.66 3942.51,-370.162 3935.31,-369.786 3938.43,-363.283 3945.63,-363.66"/>
</g>
<!-- 38 -->
<g id="node39" class="node"><title>38</title>
<polygon fill="khaki" stroke="black" points="3825.48,-95.9 3825.48,-137.5 3930.52,-137.5 3930.52,-95.9 3825.48,-95.9"/>
<text text-anchor="middle" x="3878" y="-120.9" font-family="Times,serif" font-size="14.00">«BLOCK»</text>
<text text-anchor="middle" x="3878" y="-104.1" font-family="Times,serif" font-size="14.00"> CallExpression</text>
</g>
<!-- 37&#45;&gt;38 -->
<g id="edge24" class="edge"><title>37&#45;&gt;38</title>
<path fill="none" stroke="black" d="M3916.96,-189.085C3907.82,-172.334 3896.83,-152.191 3888.85,-137.579"/>
<polygon fill="black" stroke="black" points="3917.19,-189.496 3923.57,-192.847 3922.94,-200.03 3916.55,-196.679 3917.19,-189.496"/>
</g>
<!-- 39 -->
<g id="node40" class="node"><title>39</title>
<polygon fill="khaki" stroke="black" points="3937.48,-95.9 3937.48,-137.5 4042.52,-137.5 4042.52,-95.9 3937.48,-95.9"/>
<text text-anchor="middle" x="3990" y="-120.9" font-family="Times,serif" font-size="14.00">«BLOCK»</text>
<text text-anchor="middle" x="3990" y="-104.1" font-family="Times,serif" font-size="14.00"> CallExpression</text>
</g>
<!-- 37&#45;&gt;39 -->
<g id="edge25" class="edge"><title>37&#45;&gt;39</title>
<path fill="none" stroke="black" d="M3951.04,-189.085C3960.18,-172.334 3971.17,-152.191 3979.15,-137.579"/>
<polygon fill="black" stroke="black" points="3950.81,-189.496 3951.45,-196.679 3945.06,-200.03 3944.43,-192.847 3950.81,-189.496"/>
</g>
<!-- 41 -->
<g id="node42" class="node"><title>41</title>
<polygon fill="lightblue" stroke="black" points="3640.96,-382.3 3640.96,-423.9 3751.04,-423.9 3751.04,-382.3 3640.96,-382.3"/>
<text text-anchor="middle" x="3696" y="-407.3" font-family="Times,serif" font-size="14.00">«FUNCTION»</text>
<text text-anchor="middle" x="3696" y="-390.5" font-family="Times,serif" font-size="14.00"> (err)</text>
</g>
</g>
</svg>
